<svg version="1.1" id="Layer_1" xmlns="http://www.w3.org/2000/svg" xmlns:xlink="http://www.w3.org/1999/xlink" x="0px" y="0px"
	 width="794.915px" height="652.542px" viewBox="0 0 794.915 652.542" enable-background="new 0 0 794.915 652.542"
	 xml:space="preserve">
<g>
	<path fill="#C4C4C4" d="M747.443,50.313c0.244,0.149,1.517-7.646,1.134-8.082c-1.663-1.886-4.203-2.748-4.203-2.748l-1.932-0.131
		l-3.187,0.131l-1.831-1.777l-0.162-2.586l-5.873,5.927l-5.443,5.064l-2.37,2.748l-9.804,5.656l-9.967,2.479l-5.391,1.777
		l-3.608-0.591l-4.688-0.376c0,0-5.346,1.211-12.012,3.877c-6.668,2.668-26.395,1.078-33.728,1.078s-16.919-3.232-16.919-3.232
		l-11.853-0.81l-4.686,1.565l-5.119,0.915l-5.333,2.154c0,0-0.491-0.814-3.827,1.185c-3.333,2.001-6.036,1.885-6.036,1.885
		s-5.809,1.687-7.811,3.019c-2,1.333-3.668-0.512-7.003,2.155c-3.331,2.666-7.812,7.919-7.812,7.919l-7.166,3.772l-4.256,3.231
		l-8.458,3.125c0,0-4.844,2.027-6.842,2.694c-2.001,0.666-3.826,2.047-6.357,3.179c-2.584,1.154-8.514,2.478-8.514,2.478
		l-7.543,6.412l-7.271,0.269c0,0-5.114,0.572-7.113,1.239c-1.996,0.667-9.59,1.455-9.59,1.455s-16.162,3.987-20.688,4.903
		c-3.52,0.711-8.411,1.098-13.2,1.887c-3.283,0.538-5.703-2.568-7.703-3.235c-2.002-0.665-1.971-1.487-6.734-2.424
		c-3.018-0.592-6.465,2.103-6.465,2.103l-23.059-1.67l-2.373-1.239l-4.201-5.335l-5.441-7.381l-4.312-2.532l-7.65-4.093
		l-8.352-0.649l-5.278-1.346l-5.442-0.646l-5.763,1.185c0,0-3.496,0.572-5.497,1.24c-1.998,0.667-3.824,2.855-3.824,2.855
		s-0.695,0.747-2.695,2.747c-1.999,2.001-7.164,2.426-7.164,2.426l-5.174,2.477l-3.825,2.048l-5.71,2.964
		c0,0,0.348,0.518-2.318,1.186c-2.668,0.667-6.033-2.103-6.033-2.103s-9.854,4.648-12.984,6.951
		c-2.855,2.102-2.692,2.264-5.495,2.856c-2.918,0.616-5.334,3.448-5.334,3.448l-5.925-2.155c0,0-2.586,0.861-5.66,0.215
		c-3.393-1.615-16.917-0.43-16.917-0.43l-3.071,0.052l-4.31,2.264l-3.77-3.394l-0.454-7.188l-0.71-0.748l-5.948-5.156l-6.034,0.054
		l-2.157-0.646l-4.417-1.078c0,0,4.908,1.623-2.424-0.377c-0.809-1.454-11.098-3.61-11.098-3.61l-1.104,5.981l-1.698,2.208
		l-1.51,3.934l0.161,2.801l-2.639,4.04c0,0,0.452,0.076-0.216,4.742c0.809,7.92-0.915,11.044-0.915,11.044l-2.721,2.264l1.519,7.354
		c0,0,0.493,4.587,2.493,5.253c2.002,0.668,0.892,1.051,0.892,1.051l-1.32,4.606l2.263,0.701l3.877,2.318l1.939,3.608l0.054,4.311
		l-1.672,1.401l-8.079,1.509l-4.851-0.162l-1.75-0.916l-2.452,1.831l-3.616-1.479l-3.711,0.457l0.378,2.21l-3.02,3.231
		c0,0,0.593,1.698,0.593,4.364c0,2.667,0,3.286,0,3.286s-0.134-0.215,1.833,2.478c1.455,1.995-0.322,3.395-0.322,3.395l-0.812,2.316
		l-1.56,2.155l-1.509,2.425l-2.642-0.593l-1.627,0.364l-1.119,1.685l-1.024,3.34l-2.747-1.347l-3.394,0.431l-3.181,3.18
		l-1.237,6.141l-0.648,5.011c0,0-0.93,0.008-2.259-1.993c-1.337-2.001-10.292-2.426-10.292-2.426l-2.158-1.884l-0.538-4.095h-1.239
		l-1.769-0.129l-1.84,0.074l-2.423,1.779c0,0-0.469,0.691-1.321,1.969c-0.851,1.277-1.28,2.554-1.28,2.554l-0.852,2.128
		l-2.128,0.427h-1.702h-1.702c0,0,1.679,6.31,1.679,8.438c0,2.129-0.079,3.987-0.079,3.987s0.103,2.049-1.173,3.326
		c-1.278,1.276-2.98,3.83-2.98,3.83s-0.852,0.428-0.427,1.704c0.427,1.277-0.806,4.503-0.806,4.503l-2.908,3.554l0.737,3.437
		l0.769,3.245c0,0,1.51,0.771,1.51,2.049c0,1.276,2.399,1.091,2.399,1.091s1.672,1.94,3.797,3.217
		c2.131,1.277,3.867,4.445,3.867,4.445l2.115,1.845l0.486,1.051l0.807,1.786v2.554v6.811c0,0-0.852,1.279-0.425,2.98
		c0.425,1.703,0.694,3.651,0.694,4.927c0,1.275,0.298,4.296,0.298,4.296l0.284,4.399l-4.258,4.683l-0.424,3.407l-0.155,2.773
		l-0.135,3.004l1.143,3.163c0,0-2.086,3.094-2.086,6.927c0,3.83,0.806,10.951,0.806,10.951s0.428,1.277,1.28,2.979
		c0.851,1.703,1.259,3.552,1.686,4.832c0.425,1.272,1.292,5.385,1.292,5.385s0.425,2.128,0.851,3.407
		c0.426,1.274,3.191,5.832,3.191,5.832s0.553,0.556,0.565,1.053l0.94,0.899l3.934,0.543c0,0-2.51,0.438,4.824-0.23
		c7.334-0.668-1.515-0.005,3.821-0.005c1.915,0,2.874,0,3.332,0c0.256,0,0.358,0,0.358,0h1.641c0,0,0.504,0.248,4.505,0.248
		c1.212,0,2.585-0.971,2.585-0.971l2.425-2.344l0.893-1.44l4.928,3.173l5.333,2.666l3.124,0.681l0.322,0.646l-1.833,0.106
		c0,0-3.117-0.182-3.34,1.348c-0.322,2.208-2.235,4.022-2.155,4.363c-1.456,1.025-3.665,2.802-4.204,4.633
		c-0.553,1.888,0.918,2.155,0.918,2.155l4.338-0.39l3.07,0.081l1.859,0.633l3.233,5.077l1.999,1.334l2.667,2.666l1.394,2.735
		c0,0,0.78,0.57,0.888,1.709c0.103,1.078-1.092,1.562-1.239,1.294c0.009,0.222-1.292,2.885-1.292,3.288
		c0,0.646,1.028,1.507,0.863,1.507l2.532,2.802l2.261,0.752c0,0,1.258,1.393,1.401,1.995c0.121,0.513-0.141,1.921-0.141,1.921
		l-0.827,7.602l-0.433,1.685l-0.073,3.381l-1.334,1.998c0,0,2.001-0.665-2,2.669c-4.002,3.333-2.058,2.31-2.058,2.31l-1.808,2.413
		c0,0-0.14,0.551-1.13,1.452c-3.119,2.838-4.688,3.395-4.688,3.395l-4.042-0.054l-0.941,1.152l-2.666,3.333l-2.669,2l-5.738,8.062
		l3.34,3.396l4.399,0.544l0.264,1.461l0.885,5.751l-2.207-0.591c-0.314-0.158-1.945-0.379-3.557-1.186c-4-2-4.421-1.834-4.421-1.834
		l-1.504,0.271l-3.718,0.648c0,0-1.509-1.456-4.095-2.75l-2.856,0.54l-3.878,4.74l-2.749-0.808l-2.167,3.09
		c-4.001,4.001-4.001,4.001-4.001,4.001l-1.333,1.998l-2.667,4.668l-0.92,2.313l-0.616,2.592l3.3,1.975l1.327,0.245l2.528,0.616
		l2.826,1.307c0,0-0.271,0.9-0.486,2.195c-0.776,4.65-2.627,4.443-2.627,4.443l-0.553,1.104c0,0-3.031,0.604-3.394,1.238
		c-2.4,4.221-2.66,1.811-2.841,2.183c-1.765,3.653-1.212,2.144-1.212,2.144l-0.203,1.333l-1.131,2.981l-2.425,1.921l-3.573,1.412
		l-2.622,1.497l-2.21,2.425c0,0,0.827,4.521-0.161,4.954c-4.649,2.047-5.008,1.789-5.008,1.789s-1.399-0.355-2.267,0.747
		l-3.068,2.588c-0.315,0.157-1.053,0.526-2.666,1.33c-4.001,2.002-3.642,2.222-3.642,2.222l1.94,1.777l0.97,1.08l0.351,2.585
		c0,0,0.405,1.724-0.286,3.005c-3.117,5.781-2.669,4.001-2.669,4.001s0.389,0.283,0,2c-0.747,3.306-0.547,3.912-0.547,3.912
		l-1.105,6.963c0,0-2.987-0.844-3.017,2.21c-0.052,5.333-0.43,5.924-0.43,5.924c1.332,8.001,1.184,5.496,1.184,5.496l1.077,3.018
		l1.939,3.447l0.217,2.371l-0.217,2.479c0,0,2.737,0.378,2.231,3.517c-0.802,5.012,2.004-0.667-0.664,2.666
		c-2.667,3.334-1.333,2.002-1.333,2.002l-2.667,3.331l-2.668,3.334l-2.667,4.666l0.927-0.065l3.434-2.425l3.311-0.525l2.468-0.564
		l2.143-2.628l2.827-1.898l3.396-2.264l3.072-0.727l3.09,0.432l2,0.666l6.22,1.609l2.911,2.182l3.274,4.363l4.242-0.564l2.021,7.078
		l1.294,2.659l3.312,5.981l3.272,0.729l6.104,0.685l2.02,0.613c0,0,2.158,0.575,3.838,2.294c1.576,1.62,2.647,2.146,4.647,3.479
		c1.999,1.332,12.324,9.294,12.324,9.294l5.859,2.936l1.859,0.78l10.707,1.414l7.879,1.897l3.554-0.093l6.871,0.137l5.862-3.921
		l184.687-110.986c0,0,91.834-56.05,152.9-92.776c27.949-16.809,40.04-24.525,49.46-30.386c5.494-18.91,20.548-40.937,20.548-40.937
		s-0.405-2.201-3.738-50.869c8.666-18.001,6.409-29.794,6.409-29.794l9.592-14.977l-0.81-26.022l-11.959-23.275l2.585-31.358
		l10.345-24.243l39.438-9.375l47.021-54.742l-0.418-0.427l-0.643-2.533l-1.51-3.88L747.443,50.313z"/>
	<g>
		<g>
			<g>
				<g>
					<path fill="none" stroke="#FFFFFF" stroke-width="1.5" stroke-linecap="round" stroke-linejoin="round" d="M124.96,528.014
						c-0.01-0.053-0.019-0.104-0.029-0.155C124.942,527.916,124.953,527.968,124.96,528.014z"/>
					<path fill="none" stroke="#FFFFFF" stroke-width="1.5" stroke-linecap="round" stroke-linejoin="round" d="M124.991,528.207
						c0-0.007-0.002-0.014-0.002-0.021C124.989,528.193,124.991,528.202,124.991,528.207z"/>
					<path fill="none" stroke="#FFFFFF" stroke-width="1.5" stroke-linecap="round" stroke-linejoin="round" d="M124.989,528.186
						c-0.009-0.044-0.02-0.104-0.028-0.172C124.968,528.073,124.977,528.126,124.989,528.186z"/>
					<path fill="none" stroke="#FFFFFF" stroke-width="1.5" stroke-linecap="round" stroke-linejoin="round" d="M124.932,527.859
						c-0.003-0.035-0.012-0.07-0.017-0.107C124.919,527.785,124.929,527.824,124.932,527.859z"/>
					<path fill="none" stroke="#FFFFFF" stroke-width="1.5" stroke-linecap="round" stroke-linejoin="round" d="M125.005,528.288
						c0,0-0.007-0.029-0.015-0.081C124.997,528.237,125,528.261,125.005,528.288z"/>
				</g>
			</g>
		</g>
		<g>
			<g>
				<path fill="none" stroke="#FFFFFF" stroke-width="1.5" stroke-miterlimit="10" d="M228.469,151.849l12.361,0.612
					c0,0,8.573,4.223,6.57,9.223c-2.004,4.999-1,2.11-1,2.11l-1.449,2.111l-0.446,2.554l-1.113,1.667l-2.006,1.668l-0.445,3.333
					l1.895,1.111l9.686,6.777l8.241,14.556l0.558,2.779l1.556,4.332l2.227,5.333l0.557,2.554l-0.777,7.89l1.113,0.668
					c0,0,4.677,6.108,13.919,10.554c0,0,2.116,0.333,4.9,5.222l2.672-2.889l5.346,1.001l3.23-5.111c0,0,6.906-2.334,8.019,1.777
					l1.224,4.222l19.262,17.221l10.579,1l10.582,3l28.089-6.485c0,0,1.53-13.959,4.649-17.068l3.561-0.114l3.9-6.22l-0.892-2.445
					l-4.012-3.776l-1-3.333l-1.271-0.597l-6.911,0.493l-2.466-1.479l0.494-20.725l-1.726-4.441l-7.156-5.428l-0.228-6.377
					l0.113-4.889c0,0,3.45-18.443,17.706-17.444c0,0,6.792,0.667,8.795,2.445l6.125-3.779l5.568-0.332l16.483-5.666l3.896-3.334
					l-0.557-9.89l4.678-13.444l-1.449-13.527"/>
				<path fill="none" stroke="#FFFFFF" stroke-width="1.5" stroke-miterlimit="10" d="M183.59,204.264l4.366,7.392l8.224,4.605
					l3.29-3.288l1.05-2.071c0,0,1.56,6.89,6.348,8.222l4.79-0.443c0,0,5.455-1,4.341,4.11l-0.891,1.667l-0.558,23.554l3.004,3.666
					l9.579,0.225c0,0,1.687,10.083,11.582,2.442l5.571-2.333l4.006-1.667c0,0,2.337-0.777,5.122,1.333c0,0,3.406,3.553,3.295,8.666
					c0,0,2.384-0.441,5.504-4.775l4.451-4.336c0,0,2.562-2.998,2.007,1.223l-0.561,4.224c0,0,1.226,4.443,4.566,0.11l7.686-6.332
					l0.108-3.446c0,0-2.334-1.111-4.006,0.778c0,0-1.672-0.558-0.444-5.223l1.334-3.777l1.336-2.778l2.007-3.221"/>
				<polyline fill="none" stroke="#FFFFFF" stroke-width="1.5" stroke-miterlimit="10" points="161.432,280.901 176.242,281.9 
					181.144,283.01 182.197,284.521 188.285,291.101 193.711,292.417 197.001,292.581 198.976,292.581 201.278,291.429 
					202.266,290.442 202.759,288.303 204.134,261.986 204.971,246.458 206.197,235.791 204.863,232.347 206.644,219.903 
					206.867,219.124 				"/>
				<polyline fill="none" stroke="#FFFFFF" stroke-width="1.5" stroke-miterlimit="10" points="194.535,339.952 193.219,334.359 
					193.219,330.411 193.878,327.451 192.503,326.787 196.065,323.23 196.509,312.976 193.878,307.713 188.777,306.399 
					188.449,302.78 191.574,300.314 196.065,299.12 197.001,298.501 197.821,297.68 198.316,296.692 198.976,295.542 
					199.033,293.567 198.976,292.581 				"/>
				<path fill="none" stroke="#FFFFFF" stroke-width="1.5" stroke-miterlimit="10" d="M373.819,250.638
					c9.462,9.443,10.663,13.819,10.663,13.819c1.002,7.443-4.792,25.775-4.792,25.775c-4.195,4.322-0.559,9.684-0.608,9.585
					c1,3.445-6.577,6.907-6.577,6.907c-5.234,1.555-4.279,5.266-4.279,5.266c-0.891,4.998-1.317,4.604-1.317,4.604
					c-8.879-0.987-19.064-10.141-19.064-10.141l1.373-4.991l-5.991-2.631l-3.958,2.4l-1.225-0.222l-2.337-3.557
					c-2.227-3.442-6.296-2.569-6.296-2.569l-6.909,2.631l-3.29,9.539c-1.449,3.888-7.557-2.486-7.557-2.486
					c-16.037-0.67-16.128,10.712-16.128,10.712l-6.25-4.607c-4.009-2.666-8.224,3.949-8.224,3.949
					c-4.934-5.593-9.212-0.987-9.212-0.987c-2.116,3.777-11.412,4.6-11.412,4.6l-3.72-4.271l-2.302-2.634l-2.633-0.328l-2.301-0.329
					l-3.292,1.316l-3.288,1.646l-4.606,0.987l-4.605,0.658l-2.96,0.327c-2.117-0.332-4.934,0.658-4.934,0.658l-3.621-1.315
					l-0.494-1.496l-1.478-0.147c-1.646-1.977-7.567-1.977-7.567-1.977l-1.316,2.634l-0.769,3.936l-1.45,1.441l-3.785,0.558
					l-2.562-0.332l-5.791-4.806"/>
				<polyline fill="none" stroke="#FFFFFF" stroke-width="1.5" stroke-miterlimit="10" points="377.767,295.871 432.032,283.344 
					462.097,308.676 473.675,374.45 488.18,455.253 				"/>
				<path fill="none" stroke="#FFFFFF" stroke-width="1.5" stroke-miterlimit="10" d="M221.591,384.361l28.613,3.947l15.386,22.37
					l5.652,1.316l21.981,1.644c0,0,3.778,1.132,3.685-1.644c-0.065-1.975,15.724,9.21,15.724,9.21l17.435,21.382l5.921,10.197
					c0,0,41.448,43.752,56.909,59.871"/>
				<path fill="none" stroke="#FFFFFF" stroke-width="1.5" stroke-miterlimit="10" d="M485.979,109.685l0.781,11.5
					c0,0,12.36,0.668,21.546,6.833c0,0,8.021,6,11.358,15.832l9.186,9.667l14.201,12.998l9.188,9.334l49.272,51.664l58.799,12.499"
					/>
				<polyline fill="none" stroke="#FFFFFF" stroke-width="1.5" stroke-miterlimit="10" points="447.173,295.677 503.463,208.515 
					516.157,137.018 				"/>
				<path fill="none" stroke="#FFFFFF" stroke-width="1.5" stroke-miterlimit="10" d="M143.062,490.167l3.526,3.242l1.233,0.25
					l-0.74,6.414l3.207-0.492l3.702-2.961l4.194,5.919l3.701,2.056l3.29-0.905l3.618-2.631l4.771,0.411l3.454-2.054
					c0,0,2.011-0.428,1.562-5.757l5.017-0.08l1.563,6.742l6.825,4.438l7.237-3.454l3.127-1.479l3.288-1.236l2.304-1.232
					c0,0,3.29,0.821,6.086,5.099l1.646,4.275l-5.922,5.431l-6.169,6.168l-2.468,7.647l-9.867,10.116c0,0-1.975,4.931-1.729,7.646
					l5.674,8.389l-0.739,3.948l-5.429,9.62l0.987,1.977h5.429l4.195-1.235l3.453,0.247l0.55,2.979l-3.005,0.999l-0.997,3.918
					l1.232,2.712l4.441,1.976h3.946l-0.247,4.44c0,0,0.667-1.559,0,6.664v5.918l0.742,2.468l-1.483,2.715"/>
				<polyline fill="none" stroke="#FFFFFF" stroke-width="1.5" stroke-miterlimit="10" points="141.725,557.777 142.392,553.333 
					151.285,546.209 153.496,537.08 153.742,536.095 153.002,534.12 151.277,531.406 152.263,526.717 152.756,523.265 
					154.977,519.318 157.938,516.11 155.963,513.89 154.977,510.927 156.208,506.733 156.95,504.76 158.184,502.54 				"/>
				<polyline fill="none" stroke="#FFFFFF" stroke-width="1.5" stroke-miterlimit="10" points="300.13,569.239 286.39,546.209 
					285.656,544.236 285.656,537.657 285.001,531.735 278.817,530.419 276.517,530.419 271.915,530.419 269.611,530.419 
					268.226,529.889 267.729,528.772 267.975,529.514 268.953,530.419 268.226,529.889 267.225,527.887 266.218,527 
					264.994,526.222 263.352,522.523 260.011,522.523 256.367,522.523 253.487,522.523 247.663,522.277 245.933,520.879 
					243.878,518.577 242.396,516.193 240.753,513.807 239.93,512.327 238.534,510.927 237.71,509.779 235.738,507.557 
					233.763,504.924 224.551,504.924 214.764,504.924 				"/>
			</g>
			<path fill="none" stroke="#FFFFFF" stroke-width="1.5" stroke-miterlimit="10" d="M245.508,602.219l388.41-234.877
				c0,0,7.575-23.777,20.046-41.333l-3.343-50.665c0,0,8.685-17.11,6.014-29.999l10.023-14.667l-0.67-26.665l-12.024-23.332
				l2.226-31.333l9.799-23.331l39.417-8.666l47.439-55.998l-3.832-11.074l1.162-8.259l-3.562-2.89l-3.116,0.221l-4.013-0.664
				l-1.336-4.001l-14.031,14.001l-9.355,5.334l-15.531,4.498l-7.851-1.165l-12.917,3.999l-8.466,1.334h-11.132l-18.264-0.445
				l-11.582-3.11l-9.798-0.444l-2.673-0.667l-4.678,1.999l-5.012,0.667l-6.342,2.445l-4.012,1.109l-12.693,4.667l-6.458,1.555
				l-6.019,6.444l-2.893,2.667l-7.35,3.779l-3.565,2.888l-10.241,3.775l-6.016,2.446l-3.339,2l-6.014,2.222l-4.235,0.666
				l-3.78,3.555l-4.237,3.111l-6.678,0.444l-13.361,2.002l-19.824,4.666l-11.58,1.778l-7.127,0.888l-3.785-1.999l-9.8-3.779
				l-4.455,0.669l-2.229,1.33l-22.716-1.554l-3.234-2.715l-8.792-11.062l-3.342-1.999l-5.121-2.669l-3.566-1.999l-8.018-0.666
				l-11.132-2.002l-8.91,2.002l-4.01,1.332l-4.896,5.112l-3.117,1.11l-4.012,0.889l-13.367,6.888l-3.556,2l-4.014-1.109
				l-1.782-1.558l-8.46,4.888l-4.9,2.446l-2.671,2.223l-3.788,0.887l-4.452,3.333l-5.568-2.223l-5.792,0.223l-4.676-1.778
				l-7.125,0.891l-5.569,0.665l-2.453-0.222l-4.452,2.445l-3.565-3.333l-0.669-7.109l-2.005-3.335l-4.675-2.888l-6.015,0.222
				l-8.461-2.223l-4.011-2.666l-8.237-1.111l-0.445,6.443l-2.229,2.222l-1.334,3.111v3.334l-1.115,2.221l-1.561,2.002l-0.22,7.333
				l0.444,3.555l-0.444,2.666l-0.892,2.223l-2.451,2.222l0.445,4.888l1.559,5.556l1.114,2.443l2.005,0.891l-1.336,2.665
				l-0.225,2.222l2.229,0.445c0,0,5.569,2.444,6.012,7.557c0.449,5.11-4.9,4.221-9.578,5.11c-4.675,0.888-6.679-1.113-6.679-1.113
				l-2.674,2.001l-4.01-1.333l-3.115,0.444l-0.893,2.888l-2.006,2.667l0.227,5.554l-0.227,2.447l2.006,2.665l0.002,2.445
				l-0.672,1.555l-3.339,5.334l-3.342-0.667l-2.004,2.667l-0.668,2.665l-2.672-1.111l-3.343,0.446l-3.559,3.555l-1.783,10.444
				l-2.449-2.223l-4.011-1.776l-5.79-0.225l-1.781-1.556l-0.671-4.22l-5.118-0.221l-3.565,2.221l-2.303,4.54l-0.852,2.13
				l-3.841,0.425h-1.707l1.131,4.015l0.889,4l0.449,2.889l-1.562,3.556l-3.465,5.121l-0.542,3.324l-0.445,2.889l-2.993,3.227
				l0.566,3.754l1.31,4.128l1.784,2.667l4.02,1.794l5.258,5.459l2.975,3.857l0.218,4.668l0.222,5.521l-0.222,4.033l0.893,7.333
				l-0.384,5.733l-4.269,4.683v6.384l0.43,5.962l-1.709,6.384l1.255,9.297l1.561,6.887l1.781,5.335l2.671,10.222l3.567,4.445
				l4.922,0.665l4.205,0.224l3.788-0.224l3.563,0.224h4.232l3.784-0.224l2.225-1.999l2.896-2.224l3.116,2.224l3.569,1.999
				l4.897,1.333l-4.007,0.889l-0.337,2.89l-2.114,2.223l-2.228,2l-1.783,2.666l0.67,2.667l5.792,0.221l3.562-0.221l2.005,4.221
				l5.34,5.113l0.893,1.554l1.781,2.667l-1.353,1.542l-0.649,2.901l3.342,4.667l2.894,0.444l0.44,2.222l-0.667,6.668l-0.664,6.222
				l-2.007,3.776l-3.783,5.111l-2.229,2.89l-4.676,3.333h-4.01l-2.449,2.889l-4.902,4.446l-2.446,3.11l-2.897,4.888l1.562,1.776
				l2.448,1.558l4.01,0.886l0.222,2.445l0.446,3.333l-4.23-1.333l-5.125-2l-4.898,0.888l-2.003-1.555l-2.227-1.11l-3.345,0.667
				l-1.778,1.556l-1.782,2.888l-2.676-0.666l-3.341,4l-4.009,4l-2.892,4.888l-0.893,3.112l-0.668,3.554l2.453,1.999l4.677,0.891
				l2.672,1.778l-0.668,2.221l-2.673,4.223l-3.787,1.11l-3.34,3.78l-1.781,4.22l-2.45,2.89l-6.013,2.668l-2.451,2.222l0.221,5.332
				l-1.783,0.445l-3.112,1.335l-2.455,0.443l-3.561,2.887l-2.451,1.555l-3.785,1.778l-0.22,0.668l2.892,2.665l0.668,2.665
				l-1.335,3.333l-0.892,2.446l-1.115,2.445L128.808,516v3.557l-0.703,2.715l-2.417,1.064l-0.817,2.707l-0.439,3.115l0.59,4.841
				l1.779,6.668l2.006,3.108l-0.002,4.223l2.45,2.668l-1.784,3.999l-2.894,4.223l-6.012,7.998l0.666,1.777l1.782-0.221l2.451-2.446
				l6.016-0.887l2.003-2.668l3.562-2.22l2.228-1.779c0,0,4.008-1.998,7.571-0.443c3.566,1.555,7.129,2.223,7.129,2.223l2.892,1.777
				l2.01,3.11l1.336,1.557l4.002-0.67l0.448,3.335l6.014,12.001l2.005,0.888l4.678,0.444l4.229,0.666l2.673,1.113l4.23,3.334
				l3.565,2.666l5.344,4.443l6.907,4.443l6.009,3.334l11.583,1.333l6.456,2.001l6.906-0.222h6.461L245.508,602.219z"/>
		</g>
	</g>
</g>
<g>
	<text transform="matrix(1 0 0 1 209.1206 469.7534)" fill="#505050" font-family="'Helvetica-Bold'" font-size="18.3824">DAMASCUS</text>
	<text transform="matrix(1 0 0 1 217.0869 583.1997)" fill="#505050" font-family="'Helvetica-Bold'" font-size="18.3824">AS-SUWAYDA</text>
	<text transform="matrix(1 0 0 1 145.1929 557.4136)" fill="#505050" font-family="'Helvetica-Bold'" font-size="18.3824">DARAA</text>
	<text transform="matrix(1 0 0 1 49.771 531.1274)" fill="#505050" font-family="'Helvetica-Bold'" font-size="18.3824">QUNEITRA</text>
	<text transform="matrix(1 0 0 1 254.7964 513.3511)" fill="#505050" font-family="'Helvetica-Bold'" font-size="18.3824">RIF-DIMASHQ</text>
	<text transform="matrix(1 0 0 1 334.584 376.8979)" fill="#505050" font-family="'Helvetica-Bold'" font-size="18.3824">HOMS</text>
	<text transform="matrix(1 0 0 1 266.1108 283.1323)" fill="#505050" font-family="'Helvetica-Bold'" font-size="18.3824">HAMA</text>
	<text transform="matrix(1 0 0 1 112.9756 328.688)" fill="#505050" font-family="'Helvetica-Bold'" font-size="18.3824">TARTUS</text>
	<text transform="matrix(1 0 0 1 114.6543 251.3667)" fill="#505050" font-family="'Helvetica-Bold'" font-size="18.3824">LATAKIA</text>
	<text transform="matrix(1 0 0 1 198.7617 203.2954)" fill="#505050" font-family="'Helvetica-Bold'" font-size="18.3824">IDLIB</text>
	<text transform="matrix(1 0 0 1 383.8091 206.6074)" fill="#505050" font-family="'Helvetica-Bold'" font-size="18.3824">AR-RAQQAH</text>
	<text transform="matrix(1 0 0 1 500.4111 323.6128)" fill="#505050" font-family="'Helvetica-Bold'" font-size="18.3824">DEIR EZ-ZOR</text>
	<text transform="matrix(1 0 0 1 528.8545 129.1094)" fill="#505050" font-family="'Helvetica-Bold'" font-size="18.3824">AL-HASAKAH</text>
</g>
</svg>